<svg width="20" height="20" viewBox="0 0 20 20" fill="none" xmlns="http://www.w3.org/2000/svg">
<path d="M11.1785 11.1783C10.866 11.4909 10.442 11.6665 10 11.6665C9.55797 11.6665 9.13405 11.4909 8.82149 11.1783C8.50893 10.8658 8.33333 10.4419 8.33333 9.99984C8.33333 9.55781 8.50893 9.13389 8.82149 8.82133C9.13405 8.50877 9.55797 8.33317 10 8.33317C10.442 8.33317 10.866 8.50877 11.1785 8.82133C11.4911 9.13389 11.6667 9.55781 11.6667 9.99984C11.6667 10.4419 11.4911 10.8658 11.1785 11.1783Z" fill="#E65300"/>
<path fill-rule="evenodd" clip-rule="evenodd" d="M10 4.1665C6.26834 4.1665 3.11001 6.619 2.04834 9.99984C3.11001 13.3807 6.26834 15.8332 10 15.8332C13.7317 15.8332 16.89 13.3807 17.9517 9.99984C16.89 6.619 13.7317 4.1665 10 4.1665ZM12.357 12.3569C12.9822 11.7317 13.3333 10.8839 13.3333 9.99984C13.3333 9.11578 12.9822 8.26794 12.357 7.64281C11.7319 7.01769 10.8841 6.6665 10 6.6665C9.11595 6.6665 8.26811 7.01769 7.64298 7.64281C7.01786 8.26794 6.66667 9.11578 6.66667 9.99984C6.66667 10.8839 7.01786 11.7317 7.64298 12.3569C8.26811 12.982 9.11595 13.3332 10 13.3332C10.8841 13.3332 11.7319 12.982 12.357 12.3569Z" fill="#E65300"/>
</svg>
