<svg width="20" height="20" viewBox="0 0 20 20" fill="none" xmlns="http://www.w3.org/2000/svg">
<g clip-path="url(#clip0_178_20424)">
<path d="M16.6667 4.99999H10.0001L8.33342 3.33333H3.33341C2.41675 3.33333 1.67508 4.08333 1.67508 4.99999L1.66675 15C1.66675 15.9167 2.41675 16.6667 3.33341 16.6667H16.6667C17.5834 16.6667 18.3334 15.9167 18.3334 15V6.66666C18.3334 5.74999 17.5834 4.99999 16.6667 4.99999ZM12.5001 7.49999C13.4167 7.49999 14.1667 8.24999 14.1667 9.16666C14.1667 10.0833 13.4167 10.8333 12.5001 10.8333C11.5834 10.8333 10.8334 10.0833 10.8334 9.16666C10.8334 8.24999 11.5834 7.49999 12.5001 7.49999ZM15.8334 14.1667H9.16675V13.3333C9.16675 12.225 11.3917 11.6667 12.5001 11.6667C13.6084 11.6667 15.8334 12.225 15.8334 13.3333V14.1667Z" fill="#F4F6FA"/>
</g>
<defs>
<clipPath id="clip0_178_20424">
<rect width="20" height="20" fill="white"/>
</clipPath>
</defs>
</svg>
